<?xml version="1.0" encoding="UTF-8"?>
<!DOCTYPE svg PUBLIC "-//W3C//DTD SVG 1.1//EN" "http://www.w3.org/Graphics/SVG/1.1/DTD/svg11.dtd">
<svg version="1.1" xmlns="http://www.w3.org/2000/svg" xmlns:xlink="http://www.w3.org/1999/xlink" x="0" y="0" width="1680" height="750" viewBox="0, 0, 1680, 750">
  <defs>
    <linearGradient id="Gradient_1" gradientUnits="userSpaceOnUse" x1="-252.737" y1="714.447" x2="1410.379" y2="596.132">
      <stop offset="0" stop-color="#FFFFFE"/>
      <stop offset="1" stop-color="#1B1A19"/>
    </linearGradient>
  </defs>
  <g id="Layer_1">
    <path d="M1598.268,581.778 C1597.317,584.388 1597.056,586.587 1570.137,596.133 C1551.303,602.814 1533.876,605.577 1523.412,607.227 C1511.361,602.997 1514.643,591.198 1510.02,586.731 C1505.376,582.24 1509.981,579.282 1508.7,578.187 C1507.419,577.098 1462.11,577.65 1454.931,578.553 C1447.749,579.456 1466.451,584.58 1467.144,586.656 C1467.834,588.726 1476.324,596.481 1475.883,600.033 C1475.463,603.576 1461.951,613.926 1454.214,616.869 C1403.154,615.798 1365.057,620.649 1343.613,623.136 C1340.679,619.698 1334.394,610.467 1342.881,602.313 C1353.549,592.059 1351.656,589.548 1354.683,587.904 C1357.716,586.251 1365.171,579.12 1362.174,577.92 C1359.174,576.717 1315.704,577.743 1315.704,577.743 C1306.56,580.491 1325.847,581.988 1324.782,588.348 C1324.287,591.315 1286.199,608.598 1283.514,610.002 C1295.841,613.299 1312.707,612.816 1312.524,614.286 C1312.413,615.201 1313.061,618.963 1315.713,621.699 C1310.868,619.149 1308.384,615.636 1306.203,614.61 C1281.906,612.906 1230.135,602.016 1216.665,596.487 C1203.201,590.958 1212.213,581.451 1208.616,580.014 C1205.016,578.571 1167.417,580.371 1162.209,581.874 C1157.001,583.374 1170.375,587.031 1176.663,589.593 C1182.951,592.161 1186.245,598.65 1183.971,601.878 C1179.264,608.553 1241.076,632.277 1234.806,637.326 C1278.408,639.15 1307.067,642.927 1320.762,651.282 C1331.754,657.987 1313.895,673.437 1255.608,674.217 C1280.982,673.674 1306.422,666.858 1314.111,658.203 C1322.118,649.191 1279.107,637.926 1203.894,639.654 C1191.96,639.924 1206.249,661.704 1214.919,667.833 C1214.919,667.833 1186.251,649.134 1189.899,641.049 C1172.508,647.175 1141.083,641.667 1134.345,640.593 C1134.222,639.663 1133.913,638.682 1133.343,637.653 C1132.386,635.961 1130.646,634.149 1127.61,632.268 C1124.571,630.402 1120.074,628.44 1113.198,626.766 C1106.421,625.089 1097.085,623.82 1087.434,623.373 C1086.234,623.313 1085.025,623.265 1083.828,623.229 L1082.625,623.187 L1081.968,623.178 L1080.651,623.157 L1077.177,623.103 C1076.379,623.097 1075.653,623.1 1074.93,623.1 C1074.528,623.103 1074.126,623.103 1073.715,623.1 C1069.137,623.115 1064.373,623.259 1059.567,623.55 C1054.773,623.838 1049.901,624.309 1045.287,624.981 C1040.67,625.668 1036.311,626.553 1032.699,627.636 C1029.102,628.719 1026.246,629.985 1024.575,631.311 C1022.847,632.637 1022.298,634.005 1022.682,635.283 C1023.456,636.78 1023.552,638.304 1023.33,639.708 C1023.168,640.821 1022.628,641.859 1021.848,642.768 C1020.942,642.702 1020.048,642.627 1019.127,642.57 C1017.372,642.456 1015.581,642.372 1013.778,642.306 C1011.984,642.222 1010.166,642.186 1008.348,642.153 C1004.679,642.081 1001.145,642.075 997.224,642.156 C995.175,642.18 993.615,642.237 992.019,642.294 L990.813,642.33 L990.207,642.351 L989.907,642.357 L989.256,642.387 L986.424,642.537 C982.647,642.753 978.876,643.062 975.228,643.479 C967.914,644.31 961.332,645.579 955.989,647.013 C950.67,648.456 946.452,650.04 943.035,651.615 C936.216,654.783 932.016,657.918 928.479,660.822 C924.981,663.732 922.248,666.441 919.59,668.868 C917.373,670.902 915.225,672.717 913.017,674.274 L912.972,674.124 C914.118,671.088 906.687,665.805 895.758,659.946 C914.934,645.783 905.499,631.887 931.173,625.596 C960.12,618.504 978.348,614.424 988.83,608.736 C999.309,603.048 1023.558,599.175 1016.796,593.985 C1010.034,588.798 965.847,583.473 956.625,582.3 C947.406,581.127 949.542,587.925 948.051,592.026 C946.572,596.121 946.152,599.571 903.936,614.547 C874.398,625.017 847.071,629.349 830.661,631.941 C811.755,625.302 816.9,606.801 809.646,599.793 C802.374,592.752 809.589,588.108 807.579,586.398 C805.569,584.682 734.514,585.549 723.261,586.965 C712.002,588.381 741.327,596.424 742.41,599.673 C743.496,602.922 756.804,615.09 756.126,620.652 C755.448,626.211 734.265,642.441 722.127,647.058 C642.06,645.378 582.312,652.983 548.673,656.889 C544.077,651.495 534.219,637.017 547.527,624.231 C564.258,608.154 561.291,604.212 566.04,601.629 C570.783,599.049 582.492,587.853 577.791,585.969 C573.09,584.085 504.903,585.696 504.903,585.696 C490.566,590.007 520.812,592.353 519.147,602.325 C518.37,606.984 458.634,634.089 454.428,636.291 C473.751,641.457 500.202,640.704 499.926,643.002 C499.749,644.442 500.766,650.343 504.921,654.633 C497.316,650.631 493.431,645.126 490.008,643.518 C451.899,640.839 370.707,623.763 349.587,615.096 C328.47,606.423 342.594,591.516 336.954,589.254 C331.314,586.995 272.343,589.818 264.18,592.173 C256.008,594.531 276.99,600.261 286.851,604.284 C296.706,608.301 301.878,618.483 298.311,623.55 C290.934,634.017 387.864,671.217 378.03,679.14 C446.418,681.996 491.367,687.927 512.838,701.028 C530.076,711.543 502.068,735.78 410.655,736.998 C450.45,736.152 490.353,725.46 502.407,711.885 C514.959,697.752 447.513,680.085 329.562,682.794 C310.836,683.22 333.243,717.369 346.857,726.984 C346.857,726.984 301.881,697.662 307.608,684.978 C280.332,694.587 231.042,685.941 220.479,684.264 C220.284,682.8 219.81,681.267 218.904,679.653 C217.407,677.001 214.686,674.16 209.919,671.211 C205.146,668.283 198.093,665.202 187.311,662.58 C176.685,659.952 162.048,657.96 146.904,657.258 C145.017,657.168 143.133,657.09 141.252,657.036 L139.371,656.97 L138.339,656.952 L136.269,656.919 L130.821,656.838 C129.528,656.826 128.355,656.826 127.176,656.829 C126.582,656.829 125.994,656.832 125.385,656.829 C118.212,656.856 110.745,657.078 103.212,657.54 C95.694,657.99 88.05,658.728 80.808,659.787 C73.569,660.849 66.741,662.244 61.068,663.945 C55.428,665.643 50.946,667.626 48.324,669.708 C45.621,671.79 44.76,673.935 45.363,675.933 C46.569,678.282 46.728,680.673 46.377,682.878 C46.056,685.086 44.817,687.114 43.017,688.758 C41.118,690.414 38.607,691.578 35.82,692.28 C33.066,692.979 29.241,693.363 25.398,693.465 C21.579,693.585 18.144,693.477 15.819,693.414 C14.652,693.375 13.749,693.33 13.137,693.303 C12.522,693.276 12.204,693.258 12.204,693.258 L6.87,696.204 C6.87,696.204 7.185,696.255 7.806,696.354 C8.424,696.459 9.339,696.606 10.611,696.789 C13.143,697.149 16.959,697.665 22.854,698.022 C25.806,698.187 29.31,698.301 33.396,698.223 C37.464,698.163 42.144,697.884 46.716,697.299 C51.315,696.726 55.65,695.868 59.391,694.869 C63.12,693.864 66.186,692.718 68.853,691.527 C74.202,689.124 77.619,686.484 80.256,683.73 C82.812,680.967 84.291,678.081 84.819,675.009 C85.401,673.578 88.065,672.399 92.256,671.514 C96.45,670.626 102.51,670.062 109.653,669.891 C113.22,669.807 117.018,669.816 120.951,669.945 C121.899,669.984 123.006,670.008 123.819,670.053 L126.603,670.188 L128.622,670.296 L129.63,670.344 L129.756,670.353 C129.129,670.329 129.198,670.332 129.291,670.338 C129.315,670.341 129.336,670.341 129.351,670.341 L129.471,670.35 L129.774,670.374 C130.59,670.428 131.382,670.488 132.132,670.563 C138.216,671.115 142.575,671.949 146.166,673.104 C149.718,674.253 152.493,675.744 154.422,677.373 C155.772,678.513 156.627,679.719 157.176,680.907 C160.92,680.91 164.667,680.958 168.366,681.066 C173.19,681.198 178.182,681.438 183.195,681.78 C187.449,682.062 191.7,682.431 196.188,682.911 C199.695,683.286 203.169,683.721 206.835,684.252 C210.105,684.747 212.604,685.152 214.959,685.62 L220.515,686.706 L222.051,687.006 L220.395,687.423 L186.738,695.877 L184.185,694.938 C183.603,694.725 182.931,694.479 182.553,694.323 C182.112,694.113 180.816,693.708 179.658,693.357 C177.918,692.856 176.307,692.445 174.591,692.061 C172.194,691.53 169.896,691.08 167.568,690.696 C164.619,690.201 161.628,689.787 158.664,689.445 C157.743,689.337 156.783,689.25 155.841,689.154 C155.589,689.433 155.331,689.688 155.076,689.904 C154.791,690.159 154.53,690.336 154.317,690.471 C150.528,697.032 171.72,704.433 188.88,709.281 C206.979,714.393 219.216,743.484 289.857,741.981 C323.328,741.273 359.355,741.321 390.228,741.372 C424.497,741.432 452.421,741.492 463.461,740.502 C494.343,737.736 588.354,730.401 626.748,730.71 C665.136,731.031 739.776,735.852 810.924,723.336 C836.601,718.821 913.746,692.088 917.262,687.471 L916.968,686.538 C918.39,686.28 919.872,685.971 921.375,685.62 C924.054,684.987 926.64,684.207 928.932,683.34 C933.552,681.591 936.918,679.536 939.606,677.322 C942.291,675.102 944.346,672.705 946.344,670.167 C948.342,667.629 950.232,664.941 952.677,662.196 C955.131,659.457 958.128,656.637 962.757,654.063 C967.386,651.486 973.83,649.254 982.821,648.012 C985.074,647.7 987.48,647.445 990.012,647.244 L991.947,647.103 L992.025,647.097 C992.001,647.097 991.968,647.097 991.932,647.1 C991.815,647.106 991.701,647.109 991.887,647.1 L992.187,647.082 L992.784,647.055 L993.981,646.989 C995.595,646.902 997.245,646.809 998.43,646.782 C999.192,646.749 1000.041,646.728 1000.863,646.704 L998.139,648.207 C998.139,648.207 998.346,648.24 998.739,648.3 C999.129,648.366 999.714,648.462 1000.524,648.576 C1002.138,648.807 1004.574,649.134 1008.333,649.362 C1010.217,649.467 1012.446,649.542 1015.053,649.494 C1017.648,649.452 1020.633,649.281 1023.549,648.906 C1025.616,648.648 1027.593,648.297 1029.42,647.889 C1029.891,647.946 1030.374,647.997 1030.842,648.057 C1035.687,648.732 1040.061,649.62 1043.715,650.679 C1050.99,652.8 1055.172,655.623 1055.097,658.461 C1055.124,661.311 1051.035,664.092 1044.597,666.351 C1038.276,668.652 1030.341,670.488 1021.683,671.385 C1013.097,672.303 1004.067,672.231 997.467,671.391 C990.768,670.587 986.631,669.138 985.119,667.797 C983.49,666.441 984.33,665.25 985.095,664.494 C985.473,664.11 985.932,663.825 986.25,663.633 C986.55,663.441 986.709,663.339 986.709,663.339 C986.709,663.339 986.52,663.438 986.163,663.624 C985.794,663.81 985.248,664.089 984.75,664.47 C983.751,665.22 982.497,666.432 983.775,667.908 C984.933,669.363 988.869,671.037 995.97,672.084 C1002.933,673.164 1013.088,673.47 1023.153,672.615 C1033.281,671.79 1042.755,669.876 1050.402,667.491 C1058.277,665.127 1064.37,661.917 1065.39,658.422 C1066.569,654.945 1062.597,651.312 1054.272,648.426 C1050.111,646.98 1044.912,645.717 1038.942,644.715 C1038.876,644.703 1038.798,644.694 1038.738,644.682 C1041.513,643.299 1043.442,641.808 1044.933,640.251 C1046.562,638.493 1047.504,636.654 1047.846,634.689 C1048.218,633.783 1049.91,633.027 1052.589,632.463 C1055.262,631.902 1059.123,631.539 1063.68,631.425 C1065.954,631.371 1068.375,631.38 1070.88,631.461 C1071.492,631.485 1072.194,631.5 1072.713,631.53 L1074.486,631.617 L1075.773,631.683 L1076.415,631.716 L1076.499,631.722 C1076.094,631.707 1076.145,631.71 1076.205,631.713 C1076.226,631.713 1076.247,631.716 1076.247,631.713 L1076.319,631.719 L1076.508,631.734 C1077.024,631.773 1077.531,631.809 1078.014,631.854 C1081.893,632.208 1084.668,632.739 1086.96,633.474 C1089.228,634.209 1090.992,635.163 1092.225,636.198 C1093.449,637.233 1094.058,638.349 1094.331,639.39 C1094.85,641.487 1093.692,643.326 1092.642,644.187 C1092.372,644.427 1092.126,644.577 1091.994,644.652 C1091.97,644.658 1091.946,644.664 1091.919,644.667 C1091.868,644.697 1091.865,644.706 1091.889,644.7 C1087.713,649.035 1102.68,653.292 1114.197,656.544 C1125.738,659.802 1133.535,678.354 1178.58,677.397 C1199.928,676.941 1222.905,676.974 1242.6,677.007 C1264.446,677.049 1282.245,677.079 1289.28,676.452 C1308.972,674.688 1368.912,670.008 1393.389,670.209 C1417.872,670.413 1465.47,673.485 1510.833,665.508 C1527.201,662.628 1576.392,645.582 1578.636,642.636 L1578.444,642.045 C1579.353,641.874 1580.301,641.682 1581.255,641.46 C1582.965,641.052 1584.615,640.554 1586.082,640.002 C1589.019,638.889 1591.167,637.575 1592.877,636.168 C1594.599,634.749 1595.901,633.225 1597.176,631.605 C1598.451,629.985 1599.657,628.272 1601.217,626.517 C1602.777,624.777 1604.694,622.977 1607.643,621.336 C1610.598,619.692 1614.702,618.273 1620.444,617.475 C1621.875,617.28 1623.408,617.115 1625.019,616.986 L1626.249,616.899 L1626.33,616.893 C1626.315,616.893 1626.273,616.893 1626.24,616.893 C1626.216,616.899 1626.192,616.899 1626.171,616.902 C1626.183,616.899 1626.201,616.899 1626.222,616.893 L1626.408,616.884 L1626.789,616.866 L1627.548,616.824 C1628.58,616.767 1629.63,616.71 1630.392,616.692 C1632.006,616.623 1633.896,616.581 1635.675,616.581 C1636.575,616.578 1637.481,616.575 1638.366,616.599 C1639.257,616.614 1640.148,616.632 1641.018,616.674 C1644.534,616.809 1647.948,617.082 1651.056,617.508 C1654.146,617.937 1656.933,618.504 1659.264,619.179 C1663.902,620.532 1666.569,622.329 1666.521,624.138 C1666.539,625.959 1663.926,627.729 1659.825,629.172 C1655.796,630.636 1650.738,631.809 1645.221,632.382 C1639.743,632.964 1633.983,632.922 1629.774,632.385 C1625.502,631.869 1622.868,630.948 1621.899,630.093 C1620.864,629.232 1621.395,628.467 1621.881,627.987 C1622.127,627.741 1622.421,627.561 1622.625,627.438 C1622.823,627.315 1622.91,627.252 1622.91,627.252 C1622.91,627.252 1622.796,627.315 1622.565,627.432 C1622.337,627.549 1621.986,627.723 1621.665,627.972 C1621.032,628.449 1620.231,629.22 1621.041,630.165 C1621.785,631.092 1624.284,632.16 1628.823,632.826 C1633.26,633.513 1639.737,633.708 1646.154,633.168 C1652.613,632.637 1658.652,631.422 1663.53,629.901 C1668.546,628.392 1672.428,626.34 1673.085,624.117 C1673.835,621.9 1671.297,619.578 1665.996,617.739 C1663.341,616.818 1660.026,616.014 1656.225,615.375 C1652.4,614.739 1648.092,614.283 1643.592,614.007 C1642.464,613.935 1641.327,613.878 1640.169,613.842 C1639.029,613.791 1637.874,613.764 1636.713,613.737 C1634.376,613.695 1632.123,613.689 1629.621,613.743 C1628.313,613.758 1627.317,613.797 1626.3,613.827 L1625.529,613.854 L1625.142,613.869 L1624.956,613.872 L1624.539,613.89 L1622.733,613.983 C1620.324,614.124 1617.918,614.322 1615.596,614.586 C1610.928,615.114 1606.737,615.924 1603.329,616.839 C1599.936,617.76 1597.248,618.768 1595.073,619.776 C1590.723,621.795 1588.041,623.796 1585.785,625.641 C1583.559,627.501 1581.813,629.229 1580.118,630.777 C1578.708,632.07 1577.334,633.228 1575.927,634.221 L1575.897,634.125 C1576.626,632.193 1571.889,628.824 1564.926,625.086 C1577.145,616.056 1571.133,607.197 1587.504,603.183 C1605.966,598.665 1617.588,596.058 1624.266,592.434 C1630.956,588.804 1646.412,586.335 1642.101,583.032 C1637.787,579.72 1609.614,576.324 1603.734,575.577 C1603.275,575.523 1602.867,575.49 1602.495,575.49 C1598.055,575.49 1599.141,579.363 1598.268,581.778 M1626.33,616.893 C1626.339,616.893 1626.342,616.893 1626.333,616.893 L1626.33,616.893 z M992.025,647.097 C992.067,647.094 992.091,647.094 992.058,647.094 L992.025,647.097 z M136.383,682.23 C131.157,682.515 126.027,682.938 121.128,683.487 C116.313,684.012 111.78,684.657 107.634,685.407 C103.968,686.046 100.44,686.817 96.882,687.759 L96.309,687.921 C94.98,688.29 93.717,688.635 92.634,689.01 L90.789,689.616 L89.1,690.258 C88.005,690.657 87.108,691.062 86.289,691.44 C85.554,691.752 84.864,692.094 84.081,692.535 C83.424,692.868 82.881,693.189 82.407,693.489 C83.193,693.228 84.06,692.958 85.044,692.685 C86.211,692.334 87.255,692.049 88.29,691.803 C89.466,691.5 90.681,691.194 92.085,690.906 L96.378,690.045 C97.647,689.793 99.054,689.571 100.404,689.361 L101.298,689.223 C105.216,688.65 108.843,688.227 112.338,687.942 C116.256,687.597 120.369,687.363 124.551,687.249 C128.712,687.123 132.963,687.102 137.07,687.201 C144.837,687.36 152.769,687.897 159.993,688.74 C163.077,689.094 166.2,689.535 169.263,690.045 C171.696,690.444 174.096,690.912 176.601,691.467 C178.401,691.872 180.084,692.304 181.935,692.832 C183.6,693.339 184.668,693.684 185.13,693.909 C185.439,694.038 186.078,694.275 186.633,694.473 L187.266,694.707 L217.518,687.108 L213.081,686.241 C210.828,685.797 208.404,685.407 205.257,684.924 C201.711,684.411 198.333,683.985 194.937,683.622 C190.563,683.16 186.435,682.8 182.301,682.527 C177.417,682.188 172.569,681.957 167.874,681.828 C164.193,681.717 160.467,681.666 156.753,681.666 C149.817,681.666 142.905,681.852 136.383,682.23" fill="url(#Gradient_1)"/>
    <path d="M1673.511,380.76 C1672.824,372.201 1668.909,364.521 1663.869,359.01 C1658.967,353.424 1652.904,349.089 1646.442,347.448 C1640.013,345.738 1633.542,346.893 1629.117,349.827 C1624.593,352.692 1622.109,356.967 1621.377,360.603 C1620.579,364.29 1621.395,367.227 1622.037,369.033 C1622.361,369.957 1622.712,370.617 1622.949,371.061 C1623.18,371.508 1623.297,371.736 1623.297,371.736 C1623.297,371.736 1623.198,371.499 1623.003,371.037 C1622.799,370.575 1622.502,369.894 1622.256,368.961 C1621.758,367.134 1621.215,364.221 1622.238,360.819 C1623.192,357.453 1625.814,353.724 1630.074,351.471 C1634.274,349.143 1640.031,348.609 1645.518,350.532 C1651.044,352.401 1656.126,356.631 1660.173,362.043 C1664.301,367.359 1666.938,374.049 1666.947,381.078 C1667.025,388.074 1664.388,395.193 1659.771,400.701 C1657.452,403.455 1654.674,405.816 1651.593,407.667 C1648.491,409.494 1645.083,410.775 1641.57,411.51 C1640.697,411.714 1639.809,411.849 1638.915,411.954 C1638.03,412.101 1637.124,412.146 1636.227,412.197 C1634.448,412.302 1632.558,412.26 1630.944,412.098 C1630.185,412.068 1629.129,411.912 1628.1,411.759 L1627.335,411.648 L1626.954,411.594 L1626.768,411.561 C1626.555,411.537 1626.945,411.585 1626.876,411.573 L1626.798,411.552 L1625.568,411.288 C1623.951,410.886 1622.415,410.355 1620.981,409.674 C1615.23,406.971 1611.102,401.715 1608.126,395.544 C1605.147,389.385 1603.2,382.551 1601.616,375.906 C1600.026,369.234 1598.793,362.688 1597.497,356.508 C1596.192,350.322 1594.866,344.496 1593.126,339.138 C1591.389,333.792 1589.223,328.851 1586.262,324.726 C1584.789,322.674 1583.133,320.853 1581.417,319.392 C1580.46,318.588 1579.506,317.901 1578.594,317.31 L1578.78,315.003 C1576.491,303.75 1527.03,240.894 1510.62,230.775 C1465.131,202.737 1417.593,217.557 1393.119,219.846 C1368.645,222.132 1308.636,207.741 1288.92,202.143 C1275.522,198.342 1223.268,206.256 1178.22,205.326 C1133.169,204.396 1125.663,276.579 1114.173,289.896 C1102.719,303.177 1087.815,320.562 1092.063,337.05 C1092.036,337.023 1092.039,337.059 1092.093,337.185 C1092.117,337.2 1092.141,337.215 1092.165,337.23 C1092.303,337.5 1092.546,338.073 1092.825,338.991 C1093.884,342.243 1095.072,349.29 1094.583,357.417 C1094.328,361.467 1093.743,365.814 1092.528,369.9 C1091.316,373.983 1089.567,377.763 1087.311,380.742 C1085.034,383.733 1082.265,385.95 1078.392,387.555 C1077.912,387.762 1077.408,387.945 1076.889,388.116 L1076.697,388.182 L1076.604,388.218 C1076.733,388.191 1076.247,388.296 1076.88,388.17 L1076.796,388.188 L1076.157,388.359 L1074.87,388.695 L1073.097,389.142 C1072.575,389.283 1071.876,389.385 1071.267,389.52 C1068.762,389.991 1066.341,390.162 1064.067,390.099 C1059.507,389.949 1055.643,388.794 1052.958,386.775 C1050.273,384.768 1048.566,381.957 1048.182,378.453 C1047.813,370.905 1046.841,363.846 1045.182,357.138 C1043.667,351.225 1041.717,345.573 1038.912,340.392 C1038.981,340.347 1039.053,340.308 1039.122,340.26 C1045.074,336.012 1050.249,330.807 1054.389,324.972 C1062.666,313.302 1066.575,299.004 1065.348,285.633 C1064.268,272.208 1058.127,260.16 1050.222,251.52 C1042.533,242.757 1033.029,235.959 1022.889,233.385 C1012.809,230.703 1002.663,232.518 995.718,237.12 C988.632,241.611 984.729,248.313 983.592,254.016 C982.335,259.8 983.613,264.405 984.621,267.237 C985.125,268.689 985.677,269.724 986.046,270.417 C986.409,271.119 986.595,271.479 986.595,271.479 C986.595,271.479 986.439,271.104 986.13,270.381 C985.815,269.658 985.35,268.59 984.966,267.126 C984.186,264.261 983.325,259.692 984.936,254.355 C986.427,249.078 990.54,243.231 997.227,239.694 C1003.809,236.043 1012.839,235.206 1021.443,238.224 C1030.11,241.155 1038.075,247.791 1044.426,256.275 C1050.903,264.612 1055.037,275.106 1055.052,286.128 C1055.175,297.099 1051.038,308.268 1043.796,316.905 C1040.163,321.222 1035.804,324.933 1030.968,327.828 C1030.503,328.098 1030.02,328.326 1029.549,328.581 C1027.716,327.126 1025.733,325.887 1023.663,325.02 C1020.744,323.754 1017.753,323.259 1015.158,323.259 C1012.551,323.238 1010.322,323.652 1008.438,324.183 C1004.685,325.29 1002.255,326.712 1000.647,327.699 C999.837,328.194 999.255,328.599 998.865,328.872 C998.472,329.139 998.268,329.28 998.268,329.28 L1001.013,334.917 C1000.194,334.878 999.345,334.854 998.583,334.776 C997.395,334.734 995.745,334.485 994.128,334.245 L992.934,334.071 L992.331,333.984 L992.034,333.942 C991.704,333.9 992.316,333.972 992.208,333.954 L992.091,333.93 L990.159,333.507 C987.624,332.88 985.212,332.04 982.953,330.978 C973.941,326.733 967.467,318.495 962.802,308.823 C958.128,299.151 955.083,288.444 952.59,278.013 C950.097,267.555 948.162,257.286 946.125,247.596 C944.088,237.894 942,228.759 939.276,220.353 C936.555,211.971 933.159,204.219 928.512,197.754 C926.202,194.535 916.776,182.502 916.776,182.502 C902.364,146.529 835.623,66.279 809.877,50.409 C738.54,6.438 663.984,29.679 625.605,33.267 C587.223,36.855 493.107,14.283 462.189,5.508 C441.171,-0.456 359.229,11.952 288.576,10.497 C217.923,9.039 206.151,122.244 188.133,143.13 C171.06,162.918 149.991,192.846 153.879,217.953 C154.092,218.472 154.356,219.147 154.647,220.125 C154.905,220.917 155.166,221.901 155.424,222.966 C156.369,222.531 157.32,222.132 158.241,221.658 C161.199,220.17 164.187,218.364 167.127,216.273 C169.446,214.647 171.735,212.781 174.129,210.567 C175.833,208.977 177.441,207.288 179.172,205.248 C180.321,203.817 181.614,202.182 182.046,201.336 C182.424,200.706 183.09,199.71 183.669,198.852 L186.207,195.069 L220.002,225.675 L221.658,227.178 L220.131,228.432 L214.59,232.968 C212.244,234.927 209.751,236.637 206.49,238.761 C202.83,241.041 199.368,242.946 195.867,244.608 C191.385,246.732 187.14,248.421 182.889,249.78 C177.882,251.406 172.893,252.642 168.072,253.449 C164.376,254.103 160.632,254.529 156.888,254.769 C156.357,259.38 155.523,264.084 154.191,268.596 C152.286,275.004 149.541,280.932 146.007,285.606 C142.437,290.292 138.087,293.772 132.015,296.289 C131.262,296.61 130.476,296.898 129.66,297.165 L129.357,297.273 L129.207,297.327 C129.408,297.291 128.649,297.453 129.642,297.252 L129.516,297.282 L128.508,297.546 L126.495,298.071 L123.708,298.773 C122.898,298.995 121.794,299.16 120.843,299.37 C116.916,300.105 113.118,300.375 109.548,300.276 C102.402,300.042 96.336,298.233 92.13,295.062 C87.918,291.918 85.245,287.505 84.636,282.015 C84.063,270.177 82.533,259.104 79.935,248.586 C77.256,238.107 73.797,228.105 68.406,219.162 C65.718,214.704 62.64,210.468 58.893,206.817 C55.137,203.193 50.79,200.142 46.185,198.213 C41.601,196.227 36.915,195.453 32.85,195.45 C28.761,195.417 25.257,196.071 22.314,196.902 C16.422,198.639 12.618,200.868 10.086,202.416 C8.823,203.19 7.908,203.823 7.29,204.255 C6.672,204.678 6.354,204.897 6.354,204.897 L11.745,215.952 C11.745,215.952 12.06,215.877 12.672,215.73 C13.281,215.577 14.187,215.355 15.354,215.142 C17.676,214.743 21.108,214.104 24.927,214.344 C28.77,214.494 32.598,215.733 35.367,218.295 C38.163,220.821 40.692,225.18 42.624,231.447 C44.445,237.699 45.714,245.463 46.071,253.971 C46.455,262.464 46.338,271.731 45.168,280.881 C44.598,288.636 45.495,296.892 48.231,304.755 C50.886,312.648 55.395,320.031 61.068,326.256 C66.762,332.472 73.617,337.443 80.871,341.118 C88.128,344.748 95.778,347.13 103.308,348.414 C110.844,349.728 118.317,350.124 125.493,349.785 C127.311,349.665 128.988,349.614 130.923,349.41 L136.374,348.783 L138.435,348.513 L139.467,348.378 L141.345,348.024 C143.229,347.685 145.116,347.283 147,346.8 C162.126,343.152 176.73,334.554 187.311,323.73 C198.057,312.933 205.059,300.6 209.778,288.984 C214.5,277.305 217.176,266.136 218.631,255.81 C219.51,249.495 219.96,243.546 220.131,237.876 C230.664,230.733 279.813,194.271 307.239,229.737 C301.311,181.068 345.813,64.944 345.813,64.944 C332.349,102.948 310.497,236.34 329.22,236.844 C447.201,240.018 514.359,167.565 501.582,113.712 C489.312,61.995 449.247,23.127 409.443,22.302 C500.868,21.378 529.254,113.337 512.187,155.052 C490.926,207.009 446.076,232.698 377.748,247.962 C387.699,277.974 291.378,427.755 298.917,467.754 C302.568,487.128 297.564,526.797 287.769,542.949 C277.974,559.098 257.088,582.549 265.293,591.144 C273.501,599.742 332.508,607.023 338.109,597.933 C343.71,588.849 329.349,532.089 350.325,497.277 C371.31,462.465 452.217,391.452 490.275,378.747 C493.671,372.318 497.472,350.802 505.008,334.863 C500.925,351.702 500.001,374.568 500.196,380.118 C500.514,388.998 474.057,387.714 454.812,408.885 C459.06,417.129 519.216,518.226 520.068,536.166 C521.889,574.608 491.688,585.555 506.091,601.338 C506.091,601.338 574.296,603.351 578.961,595.779 C583.635,588.207 571.752,545.676 566.964,535.977 C562.176,526.275 565.08,510.864 548.097,449.754 C534.585,401.148 544.209,344.583 548.718,323.448 C582.417,336.471 642.276,362.178 722.313,350.742 C734.52,367.833 755.958,429.276 756.723,450.729 C757.491,472.173 744.378,520.041 743.349,532.665 C742.314,545.292 713.124,578.175 724.401,582.957 C735.675,587.739 806.742,586.698 808.719,579.957 C810.702,573.222 803.412,555.708 810.573,528.048 C817.716,500.502 812.274,429.306 831.075,402.474 C847.518,411.495 874.914,426.549 904.617,465.219 C947.067,520.482 947.538,533.796 949.083,549.537 C950.637,565.284 948.612,591.687 957.81,586.59 C967.011,581.49 1011.114,558.195 1017.786,537.714 C1024.467,517.236 1000.158,503.778 989.589,482.433 C979.017,461.088 960.726,446.43 931.674,420.804 C905.898,398.073 915.114,343.797 895.713,290.217 C906.549,266.889 913.89,246.009 912.696,234.357 L912.744,233.775 C914.973,239.646 917.148,246.546 919.398,254.262 C922.095,263.469 924.873,273.783 928.413,284.82 C932.001,295.83 936.246,307.692 943.119,319.509 C946.554,325.395 950.805,331.245 956.139,336.495 C961.506,341.703 968.109,346.209 975.435,348.969 C979.089,350.349 982.866,351.321 986.643,351.93 L989.481,352.314 L990.129,352.389 L990.429,352.407 L991.035,352.446 L992.244,352.524 C993.84,352.629 995.4,352.752 997.449,352.728 C1001.373,352.791 1004.904,352.56 1008.57,352.056 C1010.388,351.807 1012.2,351.552 1014,351.114 C1015.8,350.754 1017.588,350.322 1019.346,349.761 C1020.261,349.491 1021.152,349.149 1022.058,348.84 C1022.856,352.302 1023.411,356.277 1023.591,360.573 C1023.837,365.991 1023.762,371.895 1023.015,377.733 C1022.652,382.674 1023.222,387.939 1024.971,392.955 C1026.66,397.989 1029.537,402.693 1033.149,406.665 C1036.782,410.628 1041.153,413.796 1045.779,416.139 C1050.405,418.455 1055.283,419.973 1060.083,420.792 C1064.889,421.632 1069.656,421.884 1074.234,421.665 C1075.389,421.59 1076.46,421.557 1077.696,421.428 L1081.17,421.029 L1082.487,420.855 L1083.144,420.768 L1084.341,420.543 C1085.541,420.327 1086.747,420.072 1087.947,419.763 C1097.589,417.435 1106.904,411.957 1113.651,405.051 C1120.5,398.166 1124.967,390.303 1127.976,382.896 C1130.988,375.453 1132.695,368.331 1133.622,361.746 C1134.18,357.72 1134.471,353.925 1134.573,350.31 C1141.296,345.756 1172.631,322.506 1190.121,345.12 C1186.341,314.088 1214.712,240.045 1214.712,240.045 C1206.132,264.276 1192.194,349.329 1204.137,349.65 C1279.365,351.678 1322.187,305.478 1314.039,271.14 C1306.218,238.164 1280.667,213.381 1255.287,212.853 C1313.583,212.265 1331.685,270.9 1320.801,297.498 C1307.244,330.63 1278.645,347.01 1235.076,356.742 C1241.424,375.882 1180.002,471.384 1184.811,496.89 C1187.139,509.244 1183.95,534.537 1177.701,544.833 C1171.458,555.132 1158.144,570.084 1163.376,575.565 C1168.608,581.046 1206.231,585.687 1209.804,579.897 C1213.374,574.104 1204.218,537.909 1217.592,515.712 C1230.972,493.515 1282.563,448.236 1306.824,440.136 C1308.996,436.032 1311.42,422.313 1316.223,412.152 C1313.622,422.886 1313.031,437.469 1313.154,441.009 C1313.358,446.67 1296.489,445.851 1284.219,459.354 C1286.922,464.61 1325.283,529.068 1325.823,540.513 C1326.99,565.023 1307.733,572.004 1316.916,582.066 C1316.916,582.066 1360.401,583.347 1363.38,578.52 C1366.359,573.69 1358.784,546.573 1355.73,540.387 C1352.676,534.201 1354.527,524.379 1343.697,485.409 C1335.081,454.422 1341.222,418.353 1344.096,404.871 C1365.579,413.175 1403.751,429.573 1454.781,422.277 C1462.566,433.173 1476.24,472.353 1476.723,486.03 C1477.215,499.707 1468.854,530.226 1468.197,538.278 C1467.534,546.327 1448.919,567.294 1456.116,570.345 C1463.304,573.393 1508.619,572.73 1509.879,568.431 C1511.142,564.138 1506.495,552.969 1511.064,535.335 C1515.618,517.767 1512.144,472.371 1524.129,455.265 C1534.617,461.01 1552.083,470.616 1571.025,495.27 C1598.094,530.511 1598.391,538.998 1599.381,549.036 C1600.371,559.077 1599.081,575.913 1604.943,572.661 C1610.811,569.412 1638.93,554.55 1643.187,541.5 C1647.447,528.441 1631.949,519.858 1625.208,506.247 C1618.467,492.636 1606.806,483.294 1588.275,466.95 C1571.844,452.454 1577.715,417.849 1565.352,383.679 C1572.255,368.808 1576.938,355.5 1576.176,348.069 L1576.206,347.697 C1577.625,351.441 1579.017,355.839 1580.448,360.759 C1582.17,366.63 1583.943,373.206 1586.199,380.247 C1588.485,387.261 1591.194,394.824 1595.574,402.366 C1597.767,406.116 1600.479,409.845 1603.878,413.19 C1607.298,416.514 1611.51,419.385 1616.181,421.146 C1618.509,422.025 1620.918,422.646 1623.324,423.036 L1625.136,423.282 L1625.55,423.324 L1625.742,423.339 L1626.129,423.366 L1626.897,423.414 C1627.914,423.477 1628.913,423.555 1630.218,423.54 C1632.72,423.588 1634.976,423.435 1637.31,423.117 C1638.471,422.958 1639.626,422.793 1640.766,422.514 C1641.918,422.283 1643.058,422.01 1644.18,421.65 C1648.677,420.324 1652.982,418.278 1656.789,415.593 C1660.587,412.884 1663.884,409.563 1666.524,405.849 C1671.801,398.403 1674.294,389.289 1673.511,380.76 M83.622,214.326 C82.95,213.078 82.407,211.872 81.933,210.735 C82.719,211.689 83.589,212.688 84.579,213.678 C85.755,214.968 86.799,216.003 87.837,216.894 C89.016,217.98 90.24,219.102 91.644,220.125 L95.949,223.191 C97.227,224.088 98.634,224.85 99.996,225.585 L100.881,226.065 C104.817,228.042 108.447,229.443 111.945,230.325 C115.866,231.423 119.982,232.071 124.167,232.254 C128.331,232.491 132.579,232.293 136.686,231.663 C144.45,230.571 152.376,228.021 159.579,224.295 C162.66,222.75 165.774,220.863 168.828,218.694 C171.258,216.993 173.646,215.046 176.139,212.736 C177.939,211.065 179.619,209.295 181.452,207.132 C183.114,205.068 184.173,203.679 184.632,202.776 C184.944,202.263 185.577,201.318 186.129,200.502 L186.756,199.56 L217.128,227.064 L212.703,230.688 C210.456,232.563 208.041,234.216 204.897,236.262 C201.366,238.467 197.997,240.321 194.598,241.935 C190.239,243.999 186.117,245.643 181.989,246.96 C177.105,248.544 172.26,249.747 167.571,250.533 C157.032,252.393 146.103,252.537 136.077,250.929 C130.845,250.14 125.712,248.823 120.807,247.008 C115.98,245.283 111.444,243.072 107.283,240.42 C103.605,238.179 100.068,235.413 96.495,231.996 L95.916,231.411 C94.581,230.064 93.318,228.792 92.226,227.412 L90.372,225.189 L88.671,222.81 C87.57,221.349 86.664,219.813 85.842,218.415 C85.101,217.251 84.405,215.97 83.622,214.326" fill="#1A1919"/>
  </g>
</svg>
